<mxfile host="app.diagrams.net" modified="2021-06-17T05:32:06.098Z" agent="5.0 (Macintosh; Intel Mac OS X 10_12_6) AppleWebKit/537.36 (KHTML, like Gecko) Chrome/91.0.4472.106 Safari/537.36" etag="g1Mkp7hUVUMQlioS8v3B" version="14.7.8" type="github">
  <diagram id="7w6xEFenMqmiEfSMvMpZ" name="第 1 页">
    <mxGraphModel dx="1773" dy="1732" grid="1" gridSize="10" guides="1" tooltips="1" connect="1" arrows="1" fold="1" page="1" pageScale="1" pageWidth="827" pageHeight="1169" math="0" shadow="0">
      <root>
        <mxCell id="0" />
        <mxCell id="1" parent="0" />
        <mxCell id="EohFfbry857YQSvMEl9U-1" value="" style="shape=cylinder3;whiteSpace=wrap;html=1;boundedLbl=1;backgroundOutline=1;size=15;" vertex="1" parent="1">
          <mxGeometry x="-165" y="10" width="40" height="130" as="geometry" />
        </mxCell>
        <mxCell id="EohFfbry857YQSvMEl9U-2" value="&lt;b&gt;客户端消息队列&lt;/b&gt;&lt;br&gt;socket-center-client-msg" style="text;html=1;strokeColor=none;fillColor=none;align=center;verticalAlign=middle;whiteSpace=wrap;rounded=0;" vertex="1" parent="1">
          <mxGeometry x="-215" y="-20" width="150" height="20" as="geometry" />
        </mxCell>
        <mxCell id="EohFfbry857YQSvMEl9U-3" value="" style="shape=cylinder3;whiteSpace=wrap;html=1;boundedLbl=1;backgroundOutline=1;size=15;" vertex="1" parent="1">
          <mxGeometry x="340" y="25" width="40" height="130" as="geometry" />
        </mxCell>
        <mxCell id="EohFfbry857YQSvMEl9U-4" value="&lt;b&gt;业务服务端消息队列&lt;/b&gt;&lt;br&gt;socket-center-message-queue" style="text;html=1;strokeColor=none;fillColor=none;align=center;verticalAlign=middle;whiteSpace=wrap;rounded=0;" vertex="1" parent="1">
          <mxGeometry x="290" y="-5" width="166" height="20" as="geometry" />
        </mxCell>
        <mxCell id="EohFfbry857YQSvMEl9U-5" value="" style="shape=cylinder3;whiteSpace=wrap;html=1;boundedLbl=1;backgroundOutline=1;size=15;" vertex="1" parent="1">
          <mxGeometry x="1010" y="70" width="40" height="130" as="geometry" />
        </mxCell>
        <mxCell id="EohFfbry857YQSvMEl9U-6" value="&lt;b&gt;内部业务处理消息队列&lt;/b&gt;&lt;br&gt;socket-center-message-inner-queue" style="text;html=1;strokeColor=none;fillColor=none;align=center;verticalAlign=middle;whiteSpace=wrap;rounded=0;" vertex="1" parent="1">
          <mxGeometry x="930" y="40" width="200" height="20" as="geometry" />
        </mxCell>
        <mxCell id="EohFfbry857YQSvMEl9U-12" value="MsgCheckProcessor&lt;br&gt;消息check处理队列" style="rounded=1;whiteSpace=wrap;html=1;" vertex="1" parent="1">
          <mxGeometry x="1240" y="270" width="120" height="60" as="geometry" />
        </mxCell>
        <mxCell id="EohFfbry857YQSvMEl9U-13" value="客户端消息队列：socket-center-client-msg" style="swimlane;childLayout=stackLayout;resizeParent=1;resizeParentMax=0;startSize=20;" vertex="1" parent="1">
          <mxGeometry x="-660" y="240" width="760" height="870" as="geometry" />
        </mxCell>
        <mxCell id="EohFfbry857YQSvMEl9U-14" value="登陆消息" style="swimlane;startSize=20;" vertex="1" parent="EohFfbry857YQSvMEl9U-13">
          <mxGeometry y="20" width="540" height="850" as="geometry">
            <mxRectangle y="20" width="30" height="850" as="alternateBounds" />
          </mxGeometry>
        </mxCell>
        <mxCell id="EohFfbry857YQSvMEl9U-7" value="登陆消息" style="rounded=1;whiteSpace=wrap;html=1;" vertex="1" parent="EohFfbry857YQSvMEl9U-14">
          <mxGeometry x="275" y="40" width="120" height="60" as="geometry" />
        </mxCell>
        <mxCell id="EohFfbry857YQSvMEl9U-23" value="deviceInfo存在？" style="rhombus;whiteSpace=wrap;html=1;" vertex="1" parent="EohFfbry857YQSvMEl9U-14">
          <mxGeometry x="275" y="160" width="120" height="70" as="geometry" />
        </mxCell>
        <mxCell id="EohFfbry857YQSvMEl9U-24" style="edgeStyle=orthogonalEdgeStyle;rounded=0;orthogonalLoop=1;jettySize=auto;html=1;" edge="1" parent="EohFfbry857YQSvMEl9U-14" source="EohFfbry857YQSvMEl9U-7" target="EohFfbry857YQSvMEl9U-23">
          <mxGeometry relative="1" as="geometry" />
        </mxCell>
        <mxCell id="EohFfbry857YQSvMEl9U-25" value="deviceId" style="edgeLabel;html=1;align=center;verticalAlign=middle;resizable=0;points=[];" vertex="1" connectable="0" parent="EohFfbry857YQSvMEl9U-24">
          <mxGeometry x="-0.0333" y="-1" relative="1" as="geometry">
            <mxPoint as="offset" />
          </mxGeometry>
        </mxCell>
        <mxCell id="EohFfbry857YQSvMEl9U-27" value="&lt;div style=&quot;&quot;&gt;&lt;span&gt;【save】deviceInfo&lt;/span&gt;&lt;/div&gt;&lt;span&gt;&lt;div style=&quot;&quot;&gt;&lt;span&gt;【save】deviceTag&lt;/span&gt;&lt;/div&gt;&lt;/span&gt;" style="rounded=0;whiteSpace=wrap;html=1;verticalAlign=top;align=left;" vertex="1" parent="EohFfbry857YQSvMEl9U-14">
          <mxGeometry x="375" y="285" width="120" height="40" as="geometry" />
        </mxCell>
        <mxCell id="EohFfbry857YQSvMEl9U-28" style="edgeStyle=orthogonalEdgeStyle;rounded=0;orthogonalLoop=1;jettySize=auto;html=1;exitX=1;exitY=0.5;exitDx=0;exitDy=0;" edge="1" parent="EohFfbry857YQSvMEl9U-14" source="EohFfbry857YQSvMEl9U-23" target="EohFfbry857YQSvMEl9U-27">
          <mxGeometry relative="1" as="geometry" />
        </mxCell>
        <mxCell id="EohFfbry857YQSvMEl9U-34" value="tag处理" style="swimlane;align=left;verticalAlign=top;" vertex="1" parent="EohFfbry857YQSvMEl9U-14">
          <mxGeometry x="85" y="260" width="140" height="170" as="geometry">
            <mxRectangle x="-980" y="640" width="70" height="23" as="alternateBounds" />
          </mxGeometry>
        </mxCell>
        <mxCell id="EohFfbry857YQSvMEl9U-29" value="【需要删除的tag】dbTags - clientTags" style="rounded=0;whiteSpace=wrap;html=1;align=left;verticalAlign=top;" vertex="1" parent="EohFfbry857YQSvMEl9U-34">
          <mxGeometry x="10" y="30" width="120" height="40" as="geometry" />
        </mxCell>
        <mxCell id="EohFfbry857YQSvMEl9U-30" value="【需要add的tag】clientTags - dbTags" style="rounded=0;whiteSpace=wrap;html=1;align=left;verticalAlign=top;" vertex="1" parent="EohFfbry857YQSvMEl9U-34">
          <mxGeometry x="10" y="120" width="120" height="40" as="geometry" />
        </mxCell>
        <mxCell id="EohFfbry857YQSvMEl9U-33" style="edgeStyle=orthogonalEdgeStyle;rounded=0;orthogonalLoop=1;jettySize=auto;html=1;" edge="1" parent="EohFfbry857YQSvMEl9U-34" source="EohFfbry857YQSvMEl9U-29" target="EohFfbry857YQSvMEl9U-30">
          <mxGeometry relative="1" as="geometry" />
        </mxCell>
        <mxCell id="EohFfbry857YQSvMEl9U-35" style="edgeStyle=orthogonalEdgeStyle;rounded=0;orthogonalLoop=1;jettySize=auto;html=1;entryX=0.5;entryY=0;entryDx=0;entryDy=0;exitX=0;exitY=0.5;exitDx=0;exitDy=0;" edge="1" parent="EohFfbry857YQSvMEl9U-14" source="EohFfbry857YQSvMEl9U-23" target="EohFfbry857YQSvMEl9U-34">
          <mxGeometry relative="1" as="geometry" />
        </mxCell>
        <mxCell id="EohFfbry857YQSvMEl9U-36" value="代推送消息检查" style="swimlane;align=left;verticalAlign=top;" vertex="1" parent="EohFfbry857YQSvMEl9U-14">
          <mxGeometry x="40" y="490" width="230" height="200" as="geometry" />
        </mxCell>
        <mxCell id="EohFfbry857YQSvMEl9U-39" style="edgeStyle=orthogonalEdgeStyle;rounded=0;orthogonalLoop=1;jettySize=auto;html=1;" edge="1" parent="EohFfbry857YQSvMEl9U-36" source="EohFfbry857YQSvMEl9U-37" target="EohFfbry857YQSvMEl9U-38">
          <mxGeometry relative="1" as="geometry" />
        </mxCell>
        <mxCell id="EohFfbry857YQSvMEl9U-45" value="routingKey" style="edgeLabel;html=1;align=center;verticalAlign=middle;resizable=0;points=[];" vertex="1" connectable="0" parent="EohFfbry857YQSvMEl9U-39">
          <mxGeometry x="-0.05" relative="1" as="geometry">
            <mxPoint as="offset" />
          </mxGeometry>
        </mxCell>
        <mxCell id="EohFfbry857YQSvMEl9U-37" value="【代推送的队列】MsgOffset&lt;br&gt;条件:pushOffset !=&amp;nbsp;ackOffset" style="rounded=0;whiteSpace=wrap;html=1;align=left;verticalAlign=top;" vertex="1" parent="EohFfbry857YQSvMEl9U-36">
          <mxGeometry y="50" width="230" height="40" as="geometry" />
        </mxCell>
        <mxCell id="EohFfbry857YQSvMEl9U-38" value="【补推数据】DeviceMsg&lt;br&gt;偏移量: ackOffset &amp;lt; &lt;b&gt;seqId&lt;/b&gt; &amp;lt;= pushOffset" style="rounded=0;whiteSpace=wrap;html=1;align=left;verticalAlign=top;" vertex="1" parent="EohFfbry857YQSvMEl9U-36">
          <mxGeometry y="130" width="230" height="40" as="geometry" />
        </mxCell>
        <mxCell id="EohFfbry857YQSvMEl9U-47" style="edgeStyle=orthogonalEdgeStyle;rounded=0;orthogonalLoop=1;jettySize=auto;html=1;" edge="1" parent="EohFfbry857YQSvMEl9U-14" source="EohFfbry857YQSvMEl9U-34" target="EohFfbry857YQSvMEl9U-36">
          <mxGeometry relative="1" as="geometry" />
        </mxCell>
        <mxCell id="EohFfbry857YQSvMEl9U-41" value="结束" style="rounded=1;whiteSpace=wrap;html=1;align=center;verticalAlign=middle;" vertex="1" parent="EohFfbry857YQSvMEl9U-14">
          <mxGeometry x="255" y="770" width="120" height="60" as="geometry" />
        </mxCell>
        <mxCell id="EohFfbry857YQSvMEl9U-42" style="edgeStyle=orthogonalEdgeStyle;rounded=0;orthogonalLoop=1;jettySize=auto;html=1;entryX=0;entryY=0.5;entryDx=0;entryDy=0;" edge="1" parent="EohFfbry857YQSvMEl9U-14" source="EohFfbry857YQSvMEl9U-36" target="EohFfbry857YQSvMEl9U-41">
          <mxGeometry relative="1" as="geometry" />
        </mxCell>
        <mxCell id="EohFfbry857YQSvMEl9U-43" style="edgeStyle=orthogonalEdgeStyle;rounded=0;orthogonalLoop=1;jettySize=auto;html=1;" edge="1" parent="EohFfbry857YQSvMEl9U-14" source="EohFfbry857YQSvMEl9U-27" target="EohFfbry857YQSvMEl9U-41">
          <mxGeometry relative="1" as="geometry" />
        </mxCell>
        <mxCell id="EohFfbry857YQSvMEl9U-15" value="ack消息" style="swimlane;startSize=20;" vertex="1" parent="EohFfbry857YQSvMEl9U-13">
          <mxGeometry x="540" y="20" width="220" height="850" as="geometry">
            <mxRectangle x="540" y="20" width="30" height="850" as="alternateBounds" />
          </mxGeometry>
        </mxCell>
        <mxCell id="EohFfbry857YQSvMEl9U-8" value="ACK消息" style="rounded=1;whiteSpace=wrap;html=1;" vertex="1" parent="EohFfbry857YQSvMEl9U-15">
          <mxGeometry x="50" y="40" width="120" height="60" as="geometry" />
        </mxCell>
        <mxCell id="EohFfbry857YQSvMEl9U-48" value="【update】DeviceMsg.ack=1 where ack = 0&lt;br&gt;【update】MsgOffset.ackOffset where ackOffset &amp;gt; seqId" style="rounded=0;whiteSpace=wrap;html=1;align=left;verticalAlign=middle;" vertex="1" parent="EohFfbry857YQSvMEl9U-15">
          <mxGeometry x="20" y="160" width="180" height="60" as="geometry" />
        </mxCell>
        <mxCell id="EohFfbry857YQSvMEl9U-49" style="edgeStyle=orthogonalEdgeStyle;rounded=0;orthogonalLoop=1;jettySize=auto;html=1;" edge="1" parent="EohFfbry857YQSvMEl9U-15" source="EohFfbry857YQSvMEl9U-8" target="EohFfbry857YQSvMEl9U-48">
          <mxGeometry relative="1" as="geometry" />
        </mxCell>
        <mxCell id="EohFfbry857YQSvMEl9U-50" value="seqId" style="edgeLabel;html=1;align=center;verticalAlign=middle;resizable=0;points=[];" vertex="1" connectable="0" parent="EohFfbry857YQSvMEl9U-49">
          <mxGeometry x="-0.0667" relative="1" as="geometry">
            <mxPoint as="offset" />
          </mxGeometry>
        </mxCell>
        <mxCell id="EohFfbry857YQSvMEl9U-51" value="结束" style="rounded=1;whiteSpace=wrap;html=1;align=center;verticalAlign=middle;" vertex="1" parent="EohFfbry857YQSvMEl9U-15">
          <mxGeometry x="50" y="265" width="120" height="60" as="geometry" />
        </mxCell>
        <mxCell id="EohFfbry857YQSvMEl9U-52" style="edgeStyle=orthogonalEdgeStyle;rounded=0;orthogonalLoop=1;jettySize=auto;html=1;" edge="1" parent="EohFfbry857YQSvMEl9U-15" source="EohFfbry857YQSvMEl9U-48" target="EohFfbry857YQSvMEl9U-51">
          <mxGeometry relative="1" as="geometry" />
        </mxCell>
        <mxCell id="EohFfbry857YQSvMEl9U-18" value="" style="curved=1;endArrow=classic;html=1;exitX=0.5;exitY=1;exitDx=0;exitDy=0;exitPerimeter=0;entryX=0.5;entryY=0;entryDx=0;entryDy=0;" edge="1" parent="1" source="EohFfbry857YQSvMEl9U-1" target="EohFfbry857YQSvMEl9U-14">
          <mxGeometry width="50" height="50" relative="1" as="geometry">
            <mxPoint x="-305" y="160" as="sourcePoint" />
            <mxPoint x="-265" y="170" as="targetPoint" />
            <Array as="points">
              <mxPoint x="-290" y="160" />
            </Array>
          </mxGeometry>
        </mxCell>
        <mxCell id="EohFfbry857YQSvMEl9U-20" value="0" style="edgeLabel;html=1;align=center;verticalAlign=middle;resizable=0;points=[];" vertex="1" connectable="0" parent="EohFfbry857YQSvMEl9U-18">
          <mxGeometry x="0.2072" y="-7" relative="1" as="geometry">
            <mxPoint as="offset" />
          </mxGeometry>
        </mxCell>
        <mxCell id="EohFfbry857YQSvMEl9U-19" value="" style="curved=1;endArrow=classic;html=1;exitX=0.5;exitY=1;exitDx=0;exitDy=0;exitPerimeter=0;entryX=0.5;entryY=0;entryDx=0;entryDy=0;" edge="1" parent="1" source="EohFfbry857YQSvMEl9U-1" target="EohFfbry857YQSvMEl9U-15">
          <mxGeometry width="50" height="50" relative="1" as="geometry">
            <mxPoint x="30" y="100" as="sourcePoint" />
            <mxPoint x="25" y="160" as="targetPoint" />
            <Array as="points">
              <mxPoint x="-60" y="160" />
            </Array>
          </mxGeometry>
        </mxCell>
        <mxCell id="EohFfbry857YQSvMEl9U-21" value="1" style="edgeLabel;html=1;align=center;verticalAlign=middle;resizable=0;points=[];" vertex="1" connectable="0" parent="EohFfbry857YQSvMEl9U-19">
          <mxGeometry x="0.1687" y="1" relative="1" as="geometry">
            <mxPoint as="offset" />
          </mxGeometry>
        </mxCell>
        <mxCell id="EohFfbry857YQSvMEl9U-60" value="业务服务端消息队列：socket-center-message-queue" style="swimlane;childLayout=stackLayout;resizeParent=1;resizeParentMax=0;startSize=20;align=center;verticalAlign=middle;" vertex="1" parent="1">
          <mxGeometry x="220" y="240" width="340" height="480" as="geometry" />
        </mxCell>
        <mxCell id="EohFfbry857YQSvMEl9U-61" value="向客户端推送消息" style="swimlane;startSize=20;" vertex="1" parent="EohFfbry857YQSvMEl9U-60">
          <mxGeometry y="20" width="340" height="460" as="geometry">
            <mxRectangle y="20" width="30" height="460" as="alternateBounds" />
          </mxGeometry>
        </mxCell>
        <mxCell id="EohFfbry857YQSvMEl9U-67" style="edgeStyle=orthogonalEdgeStyle;rounded=0;orthogonalLoop=1;jettySize=auto;html=1;" edge="1" parent="EohFfbry857YQSvMEl9U-61" source="EohFfbry857YQSvMEl9U-9" target="EohFfbry857YQSvMEl9U-66">
          <mxGeometry relative="1" as="geometry" />
        </mxCell>
        <mxCell id="EohFfbry857YQSvMEl9U-9" value="向客户端推送的消息" style="rounded=1;whiteSpace=wrap;html=1;" vertex="1" parent="EohFfbry857YQSvMEl9U-61">
          <mxGeometry x="20" y="40" width="120" height="60" as="geometry" />
        </mxCell>
        <mxCell id="EohFfbry857YQSvMEl9U-73" style="edgeStyle=orthogonalEdgeStyle;rounded=0;orthogonalLoop=1;jettySize=auto;html=1;entryX=0;entryY=0.5;entryDx=0;entryDy=0;" edge="1" parent="EohFfbry857YQSvMEl9U-61" source="EohFfbry857YQSvMEl9U-66" target="EohFfbry857YQSvMEl9U-72">
          <mxGeometry relative="1" as="geometry" />
        </mxCell>
        <mxCell id="EohFfbry857YQSvMEl9U-74" value="N" style="edgeLabel;html=1;align=center;verticalAlign=middle;resizable=0;points=[];" vertex="1" connectable="0" parent="EohFfbry857YQSvMEl9U-73">
          <mxGeometry x="-0.1586" y="1" relative="1" as="geometry">
            <mxPoint as="offset" />
          </mxGeometry>
        </mxCell>
        <mxCell id="EohFfbry857YQSvMEl9U-66" value="业务有序消息？&lt;br&gt;routingKey存在" style="rhombus;whiteSpace=wrap;html=1;align=center;verticalAlign=middle;" vertex="1" parent="EohFfbry857YQSvMEl9U-61">
          <mxGeometry x="22.5" y="140" width="115" height="60" as="geometry" />
        </mxCell>
        <mxCell id="EohFfbry857YQSvMEl9U-76" style="edgeStyle=orthogonalEdgeStyle;rounded=0;orthogonalLoop=1;jettySize=auto;html=1;entryX=0.5;entryY=0;entryDx=0;entryDy=0;" edge="1" parent="EohFfbry857YQSvMEl9U-61" source="EohFfbry857YQSvMEl9U-72" target="EohFfbry857YQSvMEl9U-75">
          <mxGeometry relative="1" as="geometry" />
        </mxCell>
        <mxCell id="EohFfbry857YQSvMEl9U-72" value="UUID生成一个" style="rounded=0;whiteSpace=wrap;html=1;align=center;verticalAlign=middle;" vertex="1" parent="EohFfbry857YQSvMEl9U-61">
          <mxGeometry x="210" y="140" width="120" height="60" as="geometry" />
        </mxCell>
        <mxCell id="EohFfbry857YQSvMEl9U-75" value="【save】DeviceMsg" style="rounded=0;whiteSpace=wrap;html=1;align=center;verticalAlign=middle;" vertex="1" parent="EohFfbry857YQSvMEl9U-61">
          <mxGeometry x="120" y="270" width="120" height="60" as="geometry" />
        </mxCell>
        <mxCell id="EohFfbry857YQSvMEl9U-77" style="edgeStyle=orthogonalEdgeStyle;rounded=0;orthogonalLoop=1;jettySize=auto;html=1;exitX=0.5;exitY=1;exitDx=0;exitDy=0;" edge="1" parent="1" source="EohFfbry857YQSvMEl9U-66">
          <mxGeometry relative="1" as="geometry">
            <mxPoint x="400" y="530" as="targetPoint" />
          </mxGeometry>
        </mxCell>
        <mxCell id="EohFfbry857YQSvMEl9U-78" value="Y" style="edgeLabel;html=1;align=center;verticalAlign=middle;resizable=0;points=[];" vertex="1" connectable="0" parent="EohFfbry857YQSvMEl9U-77">
          <mxGeometry x="-0.7176" relative="1" as="geometry">
            <mxPoint as="offset" />
          </mxGeometry>
        </mxCell>
        <mxCell id="EohFfbry857YQSvMEl9U-79" value="" style="curved=1;endArrow=classic;html=1;exitX=0.5;exitY=1;exitDx=0;exitDy=0;exitPerimeter=0;entryX=0.5;entryY=0;entryDx=0;entryDy=0;" edge="1" parent="1" source="EohFfbry857YQSvMEl9U-3" target="EohFfbry857YQSvMEl9U-61">
          <mxGeometry width="50" height="50" relative="1" as="geometry">
            <mxPoint x="400" y="200" as="sourcePoint" />
            <mxPoint x="300" y="300" as="targetPoint" />
            <Array as="points">
              <mxPoint x="390" y="180" />
            </Array>
          </mxGeometry>
        </mxCell>
        <mxCell id="EohFfbry857YQSvMEl9U-80" value="内部业务处理消息队列：socket-center-message-inner-queue" style="swimlane;childLayout=stackLayout;resizeParent=1;resizeParentMax=0;startSize=20;align=center;verticalAlign=middle;" vertex="1" parent="1">
          <mxGeometry x="810" y="380" width="1750" height="820" as="geometry" />
        </mxCell>
        <mxCell id="EohFfbry857YQSvMEl9U-81" value="tag处理队列" style="swimlane;startSize=20;" vertex="1" parent="EohFfbry857YQSvMEl9U-80">
          <mxGeometry y="20" width="620" height="800" as="geometry">
            <mxRectangle y="20" width="30" height="460" as="alternateBounds" />
          </mxGeometry>
        </mxCell>
        <mxCell id="EohFfbry857YQSvMEl9U-119" style="edgeStyle=orthogonalEdgeStyle;rounded=0;orthogonalLoop=1;jettySize=auto;html=1;" edge="1" parent="EohFfbry857YQSvMEl9U-81" source="EohFfbry857YQSvMEl9U-10" target="EohFfbry857YQSvMEl9U-87">
          <mxGeometry relative="1" as="geometry" />
        </mxCell>
        <mxCell id="EohFfbry857YQSvMEl9U-120" style="edgeStyle=orthogonalEdgeStyle;rounded=0;orthogonalLoop=1;jettySize=auto;html=1;" edge="1" parent="EohFfbry857YQSvMEl9U-81" source="EohFfbry857YQSvMEl9U-10" target="EohFfbry857YQSvMEl9U-88">
          <mxGeometry relative="1" as="geometry" />
        </mxCell>
        <mxCell id="EohFfbry857YQSvMEl9U-10" value="TagProcessor&lt;br&gt;tag处理队列" style="rounded=1;whiteSpace=wrap;html=1;" vertex="1" parent="EohFfbry857YQSvMEl9U-81">
          <mxGeometry x="260" y="40" width="120" height="60" as="geometry" />
        </mxCell>
        <mxCell id="EohFfbry857YQSvMEl9U-95" style="edgeStyle=orthogonalEdgeStyle;rounded=0;orthogonalLoop=1;jettySize=auto;html=1;" edge="1" parent="EohFfbry857YQSvMEl9U-81" source="EohFfbry857YQSvMEl9U-87" target="EohFfbry857YQSvMEl9U-94">
          <mxGeometry relative="1" as="geometry" />
        </mxCell>
        <mxCell id="EohFfbry857YQSvMEl9U-96" value="tag" style="edgeLabel;html=1;align=center;verticalAlign=middle;resizable=0;points=[];" vertex="1" connectable="0" parent="EohFfbry857YQSvMEl9U-95">
          <mxGeometry x="-0.2" relative="1" as="geometry">
            <mxPoint as="offset" />
          </mxGeometry>
        </mxCell>
        <mxCell id="EohFfbry857YQSvMEl9U-87" value="客户端添加tag" style="rounded=1;whiteSpace=wrap;html=1;align=center;verticalAlign=middle;" vertex="1" parent="EohFfbry857YQSvMEl9U-81">
          <mxGeometry x="100" y="135" width="120" height="60" as="geometry" />
        </mxCell>
        <mxCell id="EohFfbry857YQSvMEl9U-91" style="edgeStyle=orthogonalEdgeStyle;rounded=0;orthogonalLoop=1;jettySize=auto;html=1;entryX=0.5;entryY=0;entryDx=0;entryDy=0;" edge="1" parent="EohFfbry857YQSvMEl9U-81" source="EohFfbry857YQSvMEl9U-88" target="EohFfbry857YQSvMEl9U-89">
          <mxGeometry relative="1" as="geometry" />
        </mxCell>
        <mxCell id="EohFfbry857YQSvMEl9U-88" value="客户端删除tag" style="rounded=1;whiteSpace=wrap;html=1;align=center;verticalAlign=middle;" vertex="1" parent="EohFfbry857YQSvMEl9U-81">
          <mxGeometry x="431" y="135" width="120" height="60" as="geometry" />
        </mxCell>
        <mxCell id="EohFfbry857YQSvMEl9U-92" style="edgeStyle=orthogonalEdgeStyle;rounded=0;orthogonalLoop=1;jettySize=auto;html=1;" edge="1" parent="EohFfbry857YQSvMEl9U-81" source="EohFfbry857YQSvMEl9U-89" target="EohFfbry857YQSvMEl9U-90">
          <mxGeometry relative="1" as="geometry" />
        </mxCell>
        <mxCell id="EohFfbry857YQSvMEl9U-89" value="【update/delete】DeviceTag" style="rounded=0;whiteSpace=wrap;html=1;align=center;verticalAlign=middle;" vertex="1" parent="EohFfbry857YQSvMEl9U-81">
          <mxGeometry x="431" y="245" width="120" height="60" as="geometry" />
        </mxCell>
        <mxCell id="EohFfbry857YQSvMEl9U-90" value="结束" style="rounded=1;whiteSpace=wrap;html=1;align=center;verticalAlign=middle;" vertex="1" parent="EohFfbry857YQSvMEl9U-81">
          <mxGeometry x="431" y="360" width="120" height="60" as="geometry" />
        </mxCell>
        <mxCell id="EohFfbry857YQSvMEl9U-98" style="edgeStyle=orthogonalEdgeStyle;rounded=0;orthogonalLoop=1;jettySize=auto;html=1;exitX=0;exitY=0.5;exitDx=0;exitDy=0;" edge="1" parent="EohFfbry857YQSvMEl9U-81" source="EohFfbry857YQSvMEl9U-94" target="EohFfbry857YQSvMEl9U-97">
          <mxGeometry relative="1" as="geometry" />
        </mxCell>
        <mxCell id="EohFfbry857YQSvMEl9U-100" style="edgeStyle=orthogonalEdgeStyle;rounded=0;orthogonalLoop=1;jettySize=auto;html=1;exitX=1;exitY=0.5;exitDx=0;exitDy=0;" edge="1" parent="EohFfbry857YQSvMEl9U-81" source="EohFfbry857YQSvMEl9U-94" target="EohFfbry857YQSvMEl9U-99">
          <mxGeometry relative="1" as="geometry" />
        </mxCell>
        <mxCell id="EohFfbry857YQSvMEl9U-94" value="DeviceTag存在" style="rhombus;whiteSpace=wrap;html=1;align=center;verticalAlign=middle;" vertex="1" parent="EohFfbry857YQSvMEl9U-81">
          <mxGeometry x="100" y="240" width="120" height="70" as="geometry" />
        </mxCell>
        <mxCell id="EohFfbry857YQSvMEl9U-122" style="edgeStyle=orthogonalEdgeStyle;rounded=0;orthogonalLoop=1;jettySize=auto;html=1;entryX=0.5;entryY=0;entryDx=0;entryDy=0;" edge="1" parent="EohFfbry857YQSvMEl9U-81" source="EohFfbry857YQSvMEl9U-97" target="EohFfbry857YQSvMEl9U-116">
          <mxGeometry relative="1" as="geometry" />
        </mxCell>
        <mxCell id="EohFfbry857YQSvMEl9U-97" value="【insert】DeviceTag" style="rounded=0;whiteSpace=wrap;html=1;align=center;verticalAlign=middle;" vertex="1" parent="EohFfbry857YQSvMEl9U-81">
          <mxGeometry x="10" y="340" width="120" height="60" as="geometry" />
        </mxCell>
        <mxCell id="EohFfbry857YQSvMEl9U-117" style="edgeStyle=orthogonalEdgeStyle;rounded=0;orthogonalLoop=1;jettySize=auto;html=1;entryX=0.5;entryY=0;entryDx=0;entryDy=0;" edge="1" parent="EohFfbry857YQSvMEl9U-81" source="EohFfbry857YQSvMEl9U-99" target="EohFfbry857YQSvMEl9U-116">
          <mxGeometry relative="1" as="geometry" />
        </mxCell>
        <mxCell id="EohFfbry857YQSvMEl9U-99" value="【update】DeviceTag" style="rounded=0;whiteSpace=wrap;html=1;align=center;verticalAlign=middle;" vertex="1" parent="EohFfbry857YQSvMEl9U-81">
          <mxGeometry x="210" y="340" width="120" height="60" as="geometry" />
        </mxCell>
        <mxCell id="EohFfbry857YQSvMEl9U-116" value="结束" style="rounded=1;whiteSpace=wrap;html=1;align=center;verticalAlign=middle;" vertex="1" parent="EohFfbry857YQSvMEl9U-81">
          <mxGeometry x="100" y="470" width="120" height="60" as="geometry" />
        </mxCell>
        <mxCell id="EohFfbry857YQSvMEl9U-82" value="消息处理队列" style="swimlane;startSize=20;" vertex="1" parent="EohFfbry857YQSvMEl9U-80">
          <mxGeometry x="620" y="20" width="390" height="800" as="geometry" />
        </mxCell>
        <mxCell id="EohFfbry857YQSvMEl9U-11" value="MsgProcessor&lt;br&gt;消息处理队列" style="rounded=1;whiteSpace=wrap;html=1;" vertex="1" parent="EohFfbry857YQSvMEl9U-82">
          <mxGeometry x="135" y="40" width="120" height="60" as="geometry" />
        </mxCell>
        <mxCell id="EohFfbry857YQSvMEl9U-121" value="消息推送" style="rounded=1;whiteSpace=wrap;html=1;align=center;verticalAlign=middle;" vertex="1" parent="EohFfbry857YQSvMEl9U-82">
          <mxGeometry x="40" y="135" width="120" height="60" as="geometry" />
        </mxCell>
        <mxCell id="EohFfbry857YQSvMEl9U-83" value="消息check处理队列" style="swimlane;startSize=20;" vertex="1" parent="EohFfbry857YQSvMEl9U-80">
          <mxGeometry x="1010" y="20" width="740" height="800" as="geometry" />
        </mxCell>
      </root>
    </mxGraphModel>
  </diagram>
</mxfile>
